<?xml version="1.0" encoding="utf-8"?>
<!-- Generator: Adobe Illustrator 26.2.1, SVG Export Plug-In . SVG Version: 6.00 Build 0)  -->
<svg version="1.1" id="레이어_1" xmlns="http://www.w3.org/2000/svg" xmlns:xlink="http://www.w3.org/1999/xlink" x="0px"
	 y="0px" viewBox="0 0 227.28 40" style="enable-background:new 0 0 227.28 40;" xml:space="preserve">
<style type="text/css">
	.st0{fill:#0354FF;}
	.st1{fill:#0056FF;}
	.st2{fill:#FFFFFF;}
</style>
<symbol  id="New_Symbol_2" viewBox="-623.19 -181.41 1246.39 362.82">
	<g>
		<path class="st0" d="M-121.61-113.25c0,8.59-3.04,15.29-9.12,20.1c-6.09,4.8-16.78,9.77-32.08,14.9
			c-15.29,5.14-27.79,10.11-37.51,14.91c-31.6,15.52-47.4,36.85-47.4,63.97c0,13.51,3.94,25.43,11.82,35.76
			c7.87,10.33,19,18.36,33.41,24.12s30.6,8.63,48.56,8.63c17.53,0,33.25-3.13,47.15-9.38c13.91-6.25,24.71-15.16,32.41-26.71
			S-62.82,8.28-62.82-6.56h-58.61c0,9.94-3.05,17.64-9.13,23.12c-6.08,5.47-14.32,8.2-24.71,8.2c-10.5,0-18.78-2.32-24.87-6.95
			c-6.08-4.63-9.12-10.53-9.12-17.67c0-6.25,3.35-11.92,10.05-17s18.48-10.33,35.33-15.74c16.87-5.42,30.71-11.25,41.54-17.5
			C-76-65.29-62.82-86.23-62.82-112.92c0-21.33-8.04-38.08-24.12-50.24c-16.07-12.17-38.12-18.25-66.15-18.25
			c-19.77,0-37.66,3.54-53.67,10.63c-16.03,7.09-28.09,16.81-36.18,29.14s-12.14,26.54-12.14,42.63h58.96
			c0-13.07,3.37-22.7,10.13-28.9c6.76-6.19,17.72-9.29,32.91-9.29c9.72,0,17.39,2.09,23.03,6.28
			C-124.42-126.73-121.61-120.85-121.61-113.25z"/>
		<path class="st0" d="M159.57,20.4H86.39v-198.47H27.6V20.4h-71.85v45.39h203.82V20.4z"/>
		<path class="st0" d="M268.55-91.81h-31.82v-86.25h-58.79V65.79h95.97c28.92,0,51.53-6.42,67.83-19.24
			c16.3-12.83,24.45-30.95,24.45-54.38c0-16.95-3.44-31.01-10.3-42.16c-6.87-11.15-17.62-20.19-32.24-27.1l50.91-98.46v-2.52h-62.97
			L268.55-91.81z M236.73-46.59h37.18c11.16,0,19.57,2.93,25.21,8.81c5.63,5.87,8.46,14.07,8.46,24.59s-2.84,18.78-8.54,24.77
			s-14.07,8.98-25.13,8.98h-37.18L236.73-46.59L236.73-46.59z"/>
		<path class="st0" d="M545.82-132.51h-80.56l-14.07-45.56h-62.8l89.43,243.85h55.26l90.11-243.85h-63.13L545.82-132.51z
			 M479.32-87.13h52.42L505.46-2.55L479.32-87.13z"/>
	</g>
	<g>
		<defs>
			<rect id="SVGID_1_" x="-623.19" y="-178.63" width="341.05" height="360.04"/>
		</defs>
		<clipPath id="SVGID_00000069367103466836052410000002378508725357547186_">
			<use xlink:href="#SVGID_1_"  style="overflow:visible;"/>
		</clipPath>
		<g style="clip-path:url(#SVGID_00000069367103466836052410000002378508725357547186_);">
			
				<use xlink:href="#New_Symbol_3"  width="341.06" height="360.04" id="XMLID_00000089570799398448731210000017022982291893515688_" x="-170.53" y="-180.02" transform="matrix(1 0 0 1 -452.6628 1.3915)" style="overflow:visible;"/>
		</g>
	</g>
</symbol>
<symbol  id="New_Symbol_3" viewBox="-170.53 -180.02 341.06 360.04">
	<path class="st0" d="M108.68,64.25H77.65H56.81H46.63V-40.42c0-42.83-34.72-77.56-77.56-77.56s-77.56,34.72-77.56,77.56V68.16v7.5
		v66.51l-62.04,37.85V-40.42c0-28.7,8.67-55.37,23.52-77.56c10.19-15.22,23.3-28.33,38.52-38.52
		c22.18-14.85,48.85-23.52,77.56-23.52s55.37,8.67,77.56,23.52c15.22,10.19,28.33,23.3,38.52,38.52
		C100-95.8,108.67-69.13,108.67-40.42L108.68,64.25L108.68,64.25z"/>
	<circle class="st0" cx="139.53" cy="-149.02" r="31"/>
</symbol>
<symbol  id="새_심볼" viewBox="-111.72 -18.15 223.43 36.3">
	<g>
		<g>
			<defs>
				<rect id="SVGID_00000044856765475337483550000014422508680318175899_" x="-111.62" y="-18.1" width="124.51" height="36.25"/>
			</defs>
			<clipPath id="SVGID_00000095296886095428093480000013282686475684361858_">
				<use xlink:href="#SVGID_00000044856765475337483550000014422508680318175899_"  style="overflow:visible;"/>
			</clipPath>
			<g style="clip-path:url(#SVGID_00000095296886095428093480000013282686475684361858_);">
				
					<use xlink:href="#New_Symbol_2"  width="1246.39" height="362.82" id="XMLID_00000165931035457347099120000010091834404637907889_" x="-623.19" y="-181.41" transform="matrix(0.0999 0 0 0.0999 -49.4604 0.0254)" style="overflow:visible;"/>
			</g>
		</g>
		<g>
			<path class="st1" d="M37.29-11.44H27.08l-2.29-6.38h-3.31l9.3,24.36h2.81l9.32-24.36h-3.3L37.29-11.44z M28.05-8.82h8.28
				l-4.15,11.4L28.05-8.82z"/>
			<path class="st1" d="M49.42-15.19h11.55v-2.63H46.19V6.54h3.23V-15.19z"/>
			<path class="st1" d="M68.07-17.82h-3.21V6.54h3.21V-17.82z"/>
			<path class="st1" d="M91.87-10.09c-0.3-2.58-1.25-4.57-2.85-5.96c-1.6-1.4-3.73-2.1-6.38-2.1c-2.88,0-5.18,1.03-6.92,3.1
				s-2.6,4.83-2.6,8.28v2.34c0,2.26,0.4,4.25,1.21,5.97s1.96,3.04,3.44,3.96s3.2,1.38,5.15,1.38c2.59,0,4.66-0.72,6.22-2.17
				c1.56-1.44,2.47-3.44,2.73-6h-3.23c-0.28,1.95-0.88,3.36-1.82,4.23c-0.93,0.87-2.23,1.31-3.91,1.31c-2.05,0-3.66-0.76-4.83-2.28
				s-1.75-3.68-1.75-6.48v-2.36c0-2.65,0.55-4.75,1.66-6.31c1.1-1.56,2.65-2.34,4.63-2.34c1.79,0,3.15,0.4,4.11,1.21
				c0.95,0.81,1.59,2.22,1.9,4.22C88.63-10.09,91.87-10.09,91.87-10.09z"/>
			<path class="st1" d="M110.02-6.56H99.46v-8.63h12.26v-2.63H96.24V6.54h15.31V3.91h-12.1v-7.85h10.56v-2.62H110.02z"/>
		</g>
	</g>
</symbol>
<text transform="matrix(1 0 0 1 125.756 -252.3499)" style="fill:#606060; font-family:'Roboto-Regular'; font-size:14.6256px;">U.STRA ALICE BI</text>
<g>
	<rect class="st2" width="227.28" height="40"/>
</g>
<use xlink:href="#새_심볼"  width="223.43" height="36.3" id="XMLID_00000124157891608156468620000001197726937870275984_" x="-111.72" y="-18.15" transform="matrix(1 0 0 -1 113.6127 19.9109)" style="overflow:visible;"/>
</svg>
